# This file uses centimeters as units for non-parametric coordinates.

mtllib Al_FrontCloth.mtl
g default
v -3.305194 -8.281776 2.333026
v -2.389271 -8.281776 2.966252
v -1.235140 -8.281776 3.372808
v 0.044223 -8.281776 3.512898
v 1.323587 -8.281776 3.372808
v 2.477717 -8.281776 2.966252
v 3.393640 -8.281776 2.333026
v -3.305194 -2.659419 2.333026
v -2.389271 -2.659419 2.966252
v -1.235140 -2.659419 3.372808
v 0.044223 -2.659419 3.512898
v 1.323587 -2.659419 3.372808
v 2.477717 -2.659419 2.966252
v 3.393640 -2.659419 2.333026
vt 0.512500 0.312500
vt 0.525000 0.312500
vt 0.537500 0.312500
vt 0.550000 0.312500
vt 0.562500 0.312500
vt 0.575000 0.312500
vt 0.587500 0.312500
vt 0.512500 0.688440
vt 0.525000 0.688440
vt 0.537500 0.688440
vt 0.550000 0.688440
vt 0.562500 0.688440
vt 0.575000 0.688440
vt 0.587500 0.688440
vn -0.568679 0.000000 0.822560
vn -0.448855 0.000000 0.893605
vn -0.568679 0.000000 0.822560
vn -0.448855 0.000000 0.893605
vn -0.219172 0.000000 0.975686
vn -0.219172 0.000000 0.975686
vn 0.000000 0.000000 1.000000
vn 0.000000 0.000000 1.000000
vn 0.219172 0.000000 0.975686
vn 0.219172 0.000000 0.975686
vn 0.448855 0.000000 0.893605
vn 0.448855 0.000000 0.893605
vn 0.568679 0.000000 0.822560
vn 0.568679 0.000000 0.822560
s 1
g pasted__pCylinder17 group25
usemtl lambert3SG
f 1/1/1 2/2/2 8/8/3
f 8/8/3 2/2/2 9/9/4
f 2/2/2 3/3/5 9/9/4
f 9/9/4 3/3/5 10/10/6
f 3/3/5 4/4/7 10/10/6
f 10/10/6 4/4/7 11/11/8
f 4/4/7 5/5/9 11/11/8
f 11/11/8 5/5/9 12/12/10
f 5/5/9 6/6/11 12/12/10
f 12/12/10 6/6/11 13/13/12
f 6/6/11 7/7/13 13/13/12
f 13/13/12 7/7/13 14/14/14
